# xmcd
#
# Track frame offsets:
#	150
#	17917
#	31540
#	46255
#	61462
#	81512
#	101012
#	120612
#	135202
#	145415
#	158222
#
# Disc length: 2278 seconds
#
# Revision: 0
# Processed by: cddbd v1.5.2PL0 Copyright (c) Steve Scherf et al.
# Submitted via: dBpowerAMP V4.0
#
DISCID=8c08e40b
DTITLE=Steve Carlson Band - Rollin' On
DYEAR=1900
DGENRE=acoustic
TTITLE0=Dynamite
TTITLE1=Strange Way
TTITLE2=Rollin' On
TTITLE3=Wasted Jamie
TTITLE4=Humminbird Billy
TTITLE5=Fade Away
TTITLE6=Stop
TTITLE7=One Thing
TTITLE8=Rocking Chair
TTITLE9=Nonstop Lady
TTITLE10=Hotel Love
EXTD=
EXTT0=
EXTT1=
EXTT2=
EXTT3=
EXTT4=
EXTT5=
EXTT6=
EXTT7=
EXTT8=
EXTT9=
EXTT10=
PLAYORDER=
